<?xml version="1.0" encoding="UTF-8" standalone="no"?> <svg xmlns:dc="http://purl.org/dc/elements/1.1/" xmlns:cc="http://creativecommons.org/ns#" xmlns:rdf="http://www.w3.org/1999/02/22-rdf-syntax-ns#" xmlns:svg="http://www.w3.org/2000/svg" xmlns="http://www.w3.org/2000/svg" version="1.1" id="svg2" xml:space="preserve" width="194" height="62" viewBox="0 0 194 62.000001"><metadata id="metadata8"></metadata><defs id="defs6"></defs><g id="g10" transform="matrix(1.3333333,0,0,-1.3333333,0,173.33333)"><g id="g12" transform="scale(0.1)"><path d="m 362.94427,1002.6353 h 53.21067 v 297.3728 h -53.21067 v -297.3728" style="fill:#1a64b7;fill-opacity:1;fill-rule:nonzero;stroke:none;stroke-width:0.354951" id="path14"></path><path d="m 452.03337,1168.4526 h 49.12873 v -22.506 h 0.68506 c 6.81505,12.9572 23.55808,26.6118 48.45788,26.6118 51.84056,0 61.38164,-34.1225 61.38164,-78.5024 v -91.4207 h -51.16971 v 81.2226 c 0,19.0786 -0.35495,43.6356 -26.60001,43.6356 -26.62131,0 -30.71389,-20.809 -30.71389,-42.2782 v -82.58 h -51.1697 v 165.8173" style="fill:#1a64b7;fill-opacity:1;fill-rule:nonzero;stroke:none;stroke-width:0.354951" id="path16"></path><path d="m 815.04863,1002.6353 h -47.08422 v 21.8628 h -0.69571 c -7.82666,-11.9352 -27.62582,-25.96678 -50.82895,-25.96678 -49.11454,0 -81.54994,35.48938 -81.54994,85.64428 0,46.1007 28.67292,88.3828 75.76424,88.3828 21.10538,0 40.95777,-5.8262 52.54692,-21.8267 h 0.64956 v 109.8378 h 51.1981 z m -88.01715,124.8582 c -25.63454,0 -40.96132,-17.0238 -40.96132,-41.9495 0,-24.8771 15.32678,-41.973 40.96132,-41.973 25.60615,0 40.93293,17.0959 40.93293,41.973 0,24.9257 -15.32678,41.9495 -40.93293,41.9495" style="fill:#1a64b7;fill-opacity:1;fill-rule:nonzero;stroke:none;stroke-width:0.354951" id="path18"></path><path d="m 1006.108,1031.2865 c -16.4129,-20.8008 -43.37855,-32.75518 -69.97856,-32.75518 -51.19455,0 -92.14168,34.14728 -92.14168,87.01268 0,52.8919 40.94713,87.0144 92.14168,87.0144 47.78702,0 77.80876,-34.1225 77.80876,-87.0144 v -16.0353 H 895.17167 c 4.09258,-19.4403 18.75915,-32.0797 38.57605,-32.0797 16.71818,0 27.94527,8.5465 36.50314,20.1473 z m -43.37855,73.0507 c 0.3656,17.0387 -12.94506,31.3631 -31.3741,31.3631 -22.52163,0 -34.81357,-15.3502 -36.18368,-31.3631 h 67.55778" style="fill:#1a64b7;fill-opacity:1;fill-rule:nonzero;stroke:none;stroke-width:0.354951" id="path20"></path><path d="m 1038.8025,1002.6353 h 51.191 v 257.9342 h -51.191 v -257.9342" style="fill:#1a64b7;fill-opacity:1;fill-rule:nonzero;stroke:none;stroke-width:0.354951" id="path22"></path><path d="m 1276.8964,1031.2865 c -16.3881,-20.8008 -43.3289,-32.75518 -69.9395,-32.75518 -51.2088,0 -92.1204,34.14728 -92.1204,87.01268 0,52.8919 40.9116,87.0144 92.1204,87.0144 47.7586,0 77.8123,-34.1225 77.8123,-87.0144 v -16.0353 h -118.7594 c 4.0641,-19.4403 18.7875,-32.0797 38.5618,-32.0797 16.6969,0 27.9772,8.5465 36.528,20.1473 z m -43.3289,73.0507 c 0.3621,17.0387 -12.9379,31.3631 -31.4096,31.3631 -22.5251,0 -34.7958,-15.3502 -36.1481,-31.3631 h 67.5577" style="fill:#1a64b7;fill-opacity:1;fill-rule:nonzero;stroke:none;stroke-width:0.354951" id="path24"></path><path d="m 1421.1839,1114.9261 c -5.1078,7.0976 -14.6559,12.5674 -25.2193,12.5674 -25.5742,0 -40.9471,-17.0238 -40.9471,-41.9495 0,-24.8771 15.3729,-41.973 40.9471,-41.973 11.2839,0 19.4158,5.8123 25.2193,12.6398 L 1455,1020.7321 c -16.0721,-16.3885 -39.6196,-22.20078 -59.0354,-22.20078 -51.2194,0 -92.1665,34.14728 -92.1665,87.01268 0,52.8919 40.9471,87.0144 92.1665,87.0144 19.4158,0 42.9633,-5.8262 59.0354,-22.1791 l -33.8161,-35.4532" style="fill:#1a64b7;fill-opacity:1;fill-rule:nonzero;stroke:none;stroke-width:0.354951" id="path26"></path><path d="M 49.859581,840.44219 H 3.9710116 v 76.75819 H 14.009481 v -68.64009 h 35.8501 v -8.1181" style="fill:#eb5e57;fill-opacity:1;fill-rule:nonzero;stroke:none;stroke-width:0.354951" id="path28"></path><path d="M 107.69846,870.30521 96.6893,909.91005 85.59567,870.30521 Z m 20.1935,-29.86302 h -10.98147 l -6.4168,21.86967 H 82.799368 L 76.383633,840.44219 H 65.402521 l 24.756399,76.75819 h 13.91797 l 23.81507,-76.75819" style="fill:#eb5e57;fill-opacity:1;fill-rule:nonzero;stroke:none;stroke-width:0.354951" id="path30"></path><path d="m 236.55269,909.08621 h -31.31766 v -24.20019 h 29.43464 v -8.12092 h -29.43464 v -36.32291 h -10.03837 v 76.75819 h 41.35603 v -8.11417" style="fill:#eb5e57;fill-opacity:1;fill-rule:nonzero;stroke:none;stroke-width:0.354951" id="path32"></path><path d="m 303.59934,880.03455 c 0,9.91626 -1.01764,17.02912 -3.05045,21.33858 -2.87119,6.2269 -8.31898,9.33946 -16.34406,9.33946 -7.09227,0 -12.11979,-3.38729 -15.08683,-10.16579 -2.16733,-4.92636 -3.2517,-11.76342 -3.2517,-20.51225 0.15263,-3.62156 0.30526,-7.24469 0.45788,-10.86632 0.55018,-6.42791 1.94797,-11.51787 4.19268,-15.27673 3.19314,-5.21057 8.06129,-7.81168 14.60161,-7.81168 7.72018,0 12.97629,2.90339 15.77153,8.7129 1.88159,3.84071 2.82292,9.75838 2.82292,17.75588 0,1.30193 0,2.57343 0,3.80476 -0.076,1.21996 -0.11358,2.44845 -0.11358,3.68119 z m 10.98147,-0.81 c 0,-7.24859 -0.27615,-12.51183 -0.82633,-15.78128 -1.16069,-7.26539 -3.61056,-12.87805 -7.35564,-16.83798 -4.90436,-5.20778 -11.99202,-7.81723 -21.26652,-7.81723 -11.26827,0 -19.16451,3.73529 -23.68871,11.20314 -3.81998,6.29345 -5.72926,16.31386 -5.72926,30.05719 0,7.46781 0.19806,12.45771 0.59738,14.98283 1.08296,6.91302 3.49698,12.31644 7.24064,16.20705 4.90258,5.06089 12.09602,7.59134 21.57995,7.59134 8.01975,0 14.36698,-2.08676 19.0424,-6.26453 4.04856,-3.55625 6.88817,-8.6143 8.52307,-15.18089 1.25475,-4.92636 1.88302,-10.98289 1.88302,-18.15964" style="fill:#eb5e57;fill-opacity:1;fill-rule:nonzero;stroke:none;stroke-width:0.354951" id="path34"></path><path d="m 394.35387,859.00638 c 0,-5.26048 -1.39851,-9.53792 -4.19552,-12.82813 -4.20262,-4.92217 -11.36908,-7.39019 -21.50292,-7.39019 -10.8189,0 -18.29274,2.08811 -22.41763,6.2657 -3.42172,3.48853 -5.13294,9.23153 -5.13294,17.23315 v 54.91347 h 10.03836 v -54.91347 c 0,-5.743 1.47269,-9.81106 4.42162,-12.20005 2.66213,-2.1186 6.70857,-3.18068 12.14997,-3.18068 5.85669,0 10.10545,1.40177 12.74983,4.2095 2.5663,2.73699 3.84767,6.98252 3.84767,12.72552 v 53.35918 h 10.04156 v -58.194" style="fill:#eb5e57;fill-opacity:1;fill-rule:nonzero;stroke:none;stroke-width:0.354951" id="path36"></path><path d="m 467.96001,878.41917 c 0,10.46005 -0.97967,17.67265 -2.93899,21.64774 -2.9461,6.00932 -9.0193,9.0193 -18.22318,9.0193 h -12.9486 v -60.52592 h 15.65688 c 7.62789,0 12.88471,3.24726 15.77401,9.74315 1.7854,4.02507 2.67988,9.53096 2.67988,16.51227 0,1.78576 0,2.98514 0,3.60346 z m 10.98218,3.2833 c 0,-10.95776 -1.40916,-19.43775 -4.22392,-25.45388 -4.90542,-10.53899 -13.93537,-15.8064 -27.09339,-15.8064 h -23.81365 v 76.75819 h 25.69489 c 8.02543,0 14.3684,-1.92028 19.02536,-5.7612 4.04999,-3.27478 6.88959,-7.85045 8.52592,-13.72914 1.25652,-4.39004 1.88479,-9.7253 1.88479,-16.00757" style="fill:#eb5e57;fill-opacity:1;fill-rule:nonzero;stroke:none;stroke-width:0.354951" id="path38"></path><path d="m 547.73165,896.98629 c -0.45789,4.3091 -2.05517,7.42202 -4.79184,9.34657 -2.79701,1.83154 -7.03512,2.75335 -12.72143,2.75335 h -13.77564 v -26.68094 h 15.62848 c 5.07934,0 8.9767,1.12874 11.69563,3.37913 2.71892,2.27097 4.07838,5.38815 4.07838,9.34514 0,0.821 -0.039,1.43791 -0.11358,1.85675 z m 14.71626,-56.5441 h -11.8944 c -1.55824,2.60528 -2.49886,7.84081 -2.82186,15.70659 -0.53243,12.17925 -5.12549,18.26335 -13.77564,18.26335 h -17.51327 v -33.96994 h -10.03801 v 76.75819 h 25.68424 c 9.50203,0 16.34903,-1.92028 20.55165,-5.7612 3.43947,-3.14025 5.46269,-7.67972 6.06965,-13.6294 0,-4.99026 -1.63632,-9.23156 -4.90542,-12.7257 -3.34718,-3.48845 -7.19485,-5.44494 -11.55009,-5.85953 4.82733,-1.08969 7.31908,-1.66507 7.47171,-1.72896 3.42173,-1.50428 5.52303,-4.17749 6.30393,-8.01816 0.55017,-5.54472 1.13939,-11.04923 1.76765,-16.50798 1.00806,-6.71216 2.48111,-10.0745 4.42269,-10.0745 0.0745,0 0.15263,0 0.22717,0 v -2.45276" style="fill:#eb5e57;fill-opacity:1;fill-rule:nonzero;stroke:none;stroke-width:0.354951" id="path40"></path><path d="m 632.20638,909.08621 h -35.05139 v -24.20019 h 32.25793 v -8.12092 h -32.25793 v -28.20481 h 34.11077 v -8.1181 h -44.14878 v 76.75819 h 45.0894 v -8.11417" style="fill:#eb5e57;fill-opacity:1;fill-rule:nonzero;stroke:none;stroke-width:0.354951" id="path42"></path><path d="m 738.04206,870.30521 -11.00703,39.60484 -11.09576,-39.60484 z m 20.19315,-29.86302 h -10.98218 l -6.41396,21.86967 h -27.69326 l -6.41751,-21.86967 h -10.98218 l 24.75782,76.75819 h 13.91762 l 23.81365,-76.75819" style="fill:#eb5e57;fill-opacity:1;fill-rule:nonzero;stroke:none;stroke-width:0.354951" id="path44"></path><path d="m 821.57617,895.34571 c 0,4.39535 -1.33106,7.6467 -3.99319,9.7544 -2.64084,2.12261 -6.52755,3.18071 -11.66369,3.18071 h -14.71626 v -27.40184 h 13.77919 c 5.76085,0 9.88538,0.99386 12.37714,2.98088 2.81121,2.25713 4.21681,6.08421 4.21681,11.48585 z m 11.09576,-0.71665 c 0,-6.64432 -1.87059,-11.81169 -5.61887,-15.50425 -4.35169,-4.24556 -11.09576,-6.36409 -20.21799,-6.36409 h -15.63204 v -32.31853 h -10.038 v 76.75819 h 24.76846 c 7.62434,0 13.56977,-1.3339 17.84693,-4.00704 5.92768,-3.69113 8.89151,-9.87757 8.89151,-18.56428" style="fill:#eb5e57;fill-opacity:1;fill-rule:nonzero;stroke:none;stroke-width:0.354951" id="path46"></path><path d="m 897.75216,895.34571 c 0,4.39535 -1.33107,7.6467 -3.9932,9.7544 -2.64083,2.12261 -6.53109,3.18071 -11.66368,3.18071 h -14.71271 v -27.40184 h 13.77564 c 5.76085,0 9.88538,0.99386 12.37713,2.98088 2.81121,2.25713 4.21682,6.08421 4.21682,11.48585 z m 11.09576,-0.71665 c 0,-6.64432 -1.87059,-11.81169 -5.61887,-15.50425 -4.3517,-4.24556 -11.09576,-6.36409 -20.218,-6.36409 h -15.62848 v -32.31853 h -10.04156 v 76.75819 h 24.76847 c 7.62434,0 13.56977,-1.3339 17.84337,-4.00704 5.93123,-3.69113 8.89507,-9.87757 8.89507,-18.56428" style="fill:#eb5e57;fill-opacity:1;fill-rule:nonzero;stroke:none;stroke-width:0.354951" id="path48"></path><path d="m 974.84392,896.98629 c -0.45789,4.3091 -2.05517,7.42202 -4.79184,9.34657 -2.79701,1.83154 -7.03512,2.75335 -12.72143,2.75335 h -13.77209 v -26.68094 h 15.62848 c 5.0758,0 8.97316,1.12874 11.69208,3.37913 2.71892,2.27097 4.07838,5.38815 4.07838,9.34514 0,0.821 -0.0355,1.43791 -0.11358,1.85675 z m 14.71628,-56.5441 h -11.89442 c -1.55824,2.60528 -2.49886,7.84081 -2.82186,15.70659 -0.53243,12.17925 -5.12549,18.26335 -13.77564,18.26335 H 943.55856 V 840.44219 H 933.517 v 76.75819 h 25.68424 c 9.50203,0 16.34903,-1.92028 20.55165,-5.7612 3.43947,-3.14025 5.46271,-7.67972 6.06971,-13.6294 0,-4.99026 -1.63283,-9.23156 -4.90547,-12.7257 -3.34364,-3.48845 -7.19486,-5.44494 -11.5501,-5.85953 4.82733,-1.08969 7.32263,-1.66507 7.47526,-1.72896 3.41818,-1.50428 5.51949,-4.17749 6.30038,-8.01816 0.55017,-5.54472 1.13939,-11.04923 1.76765,-16.50798 1.00808,-6.71216 2.48108,-10.0745 4.41918,-10.0745 0.078,0 0.1526,0 0.2307,0 v -2.45276" style="fill:#eb5e57;fill-opacity:1;fill-rule:nonzero;stroke:none;stroke-width:0.354951" id="path50"></path><path d="m 1026.1521,840.44219 h -10.0416 v 76.75819 h 10.0416 v -76.75819" style="fill:#eb5e57;fill-opacity:1;fill-rule:nonzero;stroke:none;stroke-width:0.354951" id="path52"></path><path d="m 1113.3919,917.20038 -25.6949,-76.75819 h -12.0364 l -23.8421,76.75819 h 10.07 l 20.1896,-71.12056 21.2757,71.12056 h 10.0381" style="fill:#eb5e57;fill-opacity:1;fill-rule:nonzero;stroke:none;stroke-width:0.354951" id="path54"></path><path d="m 1179.5298,880.03455 c 0,9.91626 -1.0151,17.02912 -3.049,21.33858 -2.8715,6.2269 -8.32,9.33946 -16.3455,9.33946 -7.0919,0 -12.1215,-3.38729 -15.0854,-10.16579 -2.1687,-4.92636 -3.2513,-11.76342 -3.2513,-20.51225 0.1526,-3.62156 0.3017,-7.24469 0.4543,-10.86632 0.5502,-6.42791 1.9522,-11.51787 4.1955,-15.27673 3.191,-5.21057 8.061,-7.81168 14.6027,-7.81168 7.7166,0 12.9734,2.90339 15.7705,8.7129 1.8847,3.84071 2.8218,9.75838 2.8218,17.75588 0,1.30193 0,2.57343 0,3.80476 -0.074,1.21996 -0.1136,2.44845 -0.1136,3.68119 z m 10.9822,-0.81 c 0,-7.24859 -0.2768,-12.51183 -0.827,-15.78128 -1.1607,-7.26539 -3.6099,-12.87805 -7.3546,-16.83798 -4.9054,-5.20778 -11.9938,-7.81723 -21.2651,-7.81723 -11.2732,0 -19.1673,3.73529 -23.6894,11.20314 -3.8193,6.29345 -5.7289,16.31386 -5.7289,30.05719 0,7.46781 0.1987,12.45771 0.5963,14.98283 1.0861,6.91302 3.4963,12.31644 7.241,16.20705 4.9019,5.06089 12.0967,7.59134 21.581,7.59134 8.0183,0 14.3649,-2.08676 19.0396,-6.26453 4.0499,-3.55625 6.8931,-8.6143 8.5259,-15.18089 1.2529,-4.92636 1.8812,-10.98289 1.8812,-18.15964" style="fill:#eb5e57;fill-opacity:1;fill-rule:nonzero;stroke:none;stroke-width:0.354951" id="path56"></path><path d="m 1228.0126,840.44219 h -10.0416 v 76.75819 h 10.0416 v -76.75819" style="fill:#eb5e57;fill-opacity:1;fill-rule:nonzero;stroke:none;stroke-width:0.354951" id="path58"></path><path d="m 1309.8678,861.68654 c 0,-7.31532 -2.4102,-12.99453 -7.2268,-17.03487 -4.8238,-4.04171 -11.4827,-6.06188 -19.9802,-6.06188 -5.2852,0 -9.7257,0.75288 -13.3213,2.25449 -4.7528,1.98689 -8.2988,5.30901 -10.6379,9.97051 -0.8519,1.63611 -1.3595,3.61329 -1.5121,5.9385 -0.2236,2.33491 -0.3407,5.04279 -0.3407,8.11674 h 9.6972 c 0,-6.43487 0.93,-10.94942 2.7935,-13.55192 2.4172,-3.36096 7.0067,-5.03586 13.7792,-5.03586 5.1503,0 9.2464,1.13556 12.2919,3.40667 2.9461,2.25035 4.4192,5.60159 4.4192,10.04539 0,6.0938 -1.9487,10.06343 -5.8496,11.89778 -0.2237,0.13172 -3.0207,1.09399 -8.384,2.88262 -3.7447,1.23133 -6.634,2.15455 -8.6679,2.75371 -3.6524,1.16885 -6.4956,2.22945 -8.5294,3.18462 -3.8796,1.78185 -6.556,4.11388 -8.0397,6.98543 -1.5618,2.80766 -2.3426,6.30038 -2.3426,10.47105 0,6.36427 2.2539,11.45674 6.7618,15.28382 4.522,3.82247 10.4071,5.73601 17.6517,5.73601 8.1035,0 14.2903,-1.81096 18.571,-5.43394 4.1991,-3.6922 6.3004,-9.13005 6.3004,-16.30964 h -9.6973 c 0,4.30804 -1.0826,7.65913 -3.2513,10.04405 -2.4137,2.67313 -5.9597,4.00845 -10.6379,4.00845 -6.2365,0 -10.6024,-1.53338 -13.0906,-4.60761 -1.7109,-2.12261 -2.5663,-5.17163 -2.5663,-9.14673 0,-5.1262 2.7651,-8.60471 8.2988,-10.44336 l 13.8892,-4.6353 c 7.9473,-2.58866 13.2929,-5.42826 16.0296,-8.51868 2.3959,-2.74114 3.5921,-6.80508 3.5921,-12.20005" style="fill:#eb5e57;fill-opacity:1;fill-rule:nonzero;stroke:none;stroke-width:0.354951" id="path60"></path><path d="m 1380.0841,909.08621 h -35.0514 v -24.20019 h 32.2544 v -8.12092 h -32.2544 v -28.20481 h 34.1073 v -8.1181 h -44.1488 v 76.75819 h 45.0929 v -8.11417" style="fill:#eb5e57;fill-opacity:1;fill-rule:nonzero;stroke:none;stroke-width:0.354951" id="path62"></path><path d="m 1449.8142,909.08621 h -35.0514 v -24.20019 h 32.2544 v -8.12092 h -32.2544 v -28.20481 h 34.1072 v -8.1181 h -44.1523 v 76.75819 h 45.0965 v -8.11417" style="fill:#eb5e57;fill-opacity:1;fill-rule:nonzero;stroke:none;stroke-width:0.354951" id="path64"></path><path d="M 14.523876,1122.423 145.13618,1300.04 H 48.502249 C 21.706057,1300.04 -3.7500001e-7,1278.2993 -3.7500001e-7,1251.504 v -200.3196 c 0,-1.1465 0.054069995,-2.2781 0.13310699500001,-3.4037 v -45.1802 H 78.396914 v 0.056 h 25.141876 l 97.96783,119.7668 H 14.523876" style="fill:#1a64b7;fill-opacity:1;fill-rule:nonzero;stroke:none;stroke-width:0.354951" id="path66"></path><path d="m 251.62283,1299.9548 c -0.91648,0.053 -1.84148,0.085 -2.77465,0.085 h -12.25964 -35.17208 -7.69923 L 95.0867,1169.4816 H 282.09713 L 155.59729,1002.6562 h 5.1301 75.86115 12.25964 c 26.80447,0 48.54236,21.7102 48.54236,48.5282 v 130.7649 h 0.12068 v 118.0055 h -45.88839" style="fill:#1a64b7;fill-opacity:1;fill-rule:nonzero;stroke:none;stroke-width:0.354951" id="path68"></path></g></g></svg> 