<svg width="57" height="57" viewBox="0 0 57 57" fill="none" xmlns="http://www.w3.org/2000/svg">
<g clip-path="url(#clip0_39230_24766)">
<path d="M4.07812 1.30054H53.3525C54.6248 1.30054 55.6689 2.3437 55.6689 3.61597V52.8904C55.6689 54.1641 54.6262 55.2075 53.3545 55.2078H4.07812C2.80479 55.2077 1.76172 54.1637 1.76172 52.8904V3.61597C1.76173 2.34405 2.80565 1.30063 4.07812 1.30054Z" fill="#F7F8F8" stroke="#F7F8F8" stroke-width="1.13408"/>
<path d="M4.07944 0.733154H53.353C54.9452 0.733154 56.2369 2.02487 56.2369 3.61712V52.8918C56.2369 54.4829 54.9452 55.7746 53.3541 55.7746H4.07717C2.48605 55.7746 1.19434 54.4829 1.19434 52.8918V3.61825C1.19434 2.02601 2.48719 0.733154 4.07944 0.733154Z" stroke="#030712" stroke-width="0.572711" stroke-miterlimit="10"/>
<path d="M39.6759 15.3994C39.6759 15.3994 33.9035 15.3824 33.7855 15.3994C33.6676 15.4153 33.2979 15.4788 33.2979 15.9052V40.5352C33.2979 40.7597 33.4782 40.9423 33.7039 40.9423H36.4211C36.6457 40.9423 36.8271 40.7597 36.8271 40.5352V31.3412H39.6759C41.182 31.3412 42.4011 30.1164 42.4011 28.6069V18.1325C42.4011 16.6231 41.182 15.3994 39.6759 15.3994ZM39.0896 27.7121C39.0896 28.1397 38.7131 28.4878 38.2844 28.4878H37.0471V18.1371H38.315C38.7437 18.1371 39.0896 18.4841 39.0896 18.9128V27.7121Z" fill="#030712"/>
<path d="M18.4989 23.1318V19.6151C18.4989 19.014 18.9854 18.5263 19.5876 18.5263C20.1898 18.5263 20.6774 19.0446 20.6774 19.6457V23.5651C20.6876 23.7817 20.8668 23.9438 21.0868 23.9438H23.8177C24.0332 23.9438 24.2124 23.7783 24.226 23.5662V18.9913C24.226 16.9829 22.594 15.3521 20.5833 15.3521H18.6554C16.6424 15.3521 15.0127 16.9829 15.0127 18.9913V24.5018C15.0127 26.2449 15.6965 26.618 17.2525 28.1105L18.4989 29.3568C19.9924 30.9128 20.6774 31.4719 20.6774 33.215V36.7646C20.6774 37.3657 20.2521 37.9475 19.6511 37.9475C19.05 37.9475 18.4989 37.4292 18.4989 36.827V32.9643C18.4989 32.9643 18.4637 32.6332 18.0974 32.6309H15.4142C15.2123 32.6309 15.0433 32.7681 15.0138 32.9643V37.4802C15.0138 39.4898 16.6424 41.1218 18.6554 41.1218H20.5833C22.594 41.1218 24.226 39.4898 24.226 37.4802V31.9709C24.226 30.2278 23.4775 29.4804 21.9226 27.9868L20.6774 26.7416C18.9343 24.9997 18.4989 24.8126 18.4989 23.1318Z" fill="#030712"/>
<path d="M31.1572 38.6721C31.8343 37.6503 32.0656 36.4243 32.1235 35.0476C32.1189 34.9444 32.035 34.8604 31.9318 34.8604H30.6537C30.5494 34.8604 30.4666 34.9671 30.4666 35.0725C30.4666 35.0816 30.4654 35.0714 30.4666 35.0793C30.4314 35.6305 30.3713 36.1794 30.1422 36.6636L29.0694 34.5361C29.8394 33.6685 30.5278 32.852 30.5278 31.355C30.5278 29.5167 29.5128 28.6321 28.3118 28.6321C27.0643 28.6321 26.0391 29.5688 26.0391 31.473C26.0391 32.3927 26.5166 33.5143 26.8545 34.163C25.8985 35.1825 25.2441 36.0013 25.2441 37.7694C25.2441 39.3004 25.8872 41.1569 27.7992 41.1569C28.6521 41.1569 29.2577 40.7815 29.8621 40.1702L30.2398 40.9255C30.2727 41.0106 30.3532 41.0661 30.4507 41.0661H31.9579C32.0792 41.0661 32.2346 41.0673 32.2981 40.9176L31.1572 38.6721ZM28.2653 30.2311C28.6271 30.2311 28.9412 30.5884 28.9412 31.1838C28.9412 31.9334 28.5919 32.3927 28.2188 32.852C27.9376 32.3417 27.6246 31.7633 27.6246 31.1679C27.6246 30.5725 27.9512 30.2311 28.2653 30.2311ZM28.1134 39.0452C27.5304 39.0452 27.0643 38.3319 27.0643 37.5494C27.0643 36.954 27.2741 36.4425 27.7527 35.9492L29.0002 38.4339C28.7779 38.807 28.4525 39.0452 28.1134 39.0452Z" fill="#030712"/>
<path d="M30.3503 5.77661H29.8921V8.70594H30.3503L30.3956 8.70367C40.532 8.72295 48.7711 16.9768 48.7711 27.12C48.7711 27.9921 48.5761 29.1976 48.3935 30.0323L48.271 30.5892H51.2355L51.3205 30.2387C51.5451 29.3065 51.7016 28.025 51.7016 27.12C51.7016 15.3505 42.1288 5.77661 30.3503 5.77661Z" fill="#CE1A1A"/>
<path d="M27.528 47.8043H27.0698C16.9175 47.8043 8.65915 39.5436 8.65915 29.3891C8.65915 28.5385 8.72266 27.6607 8.84854 26.775L8.91999 26.2568L5.95437 26.2397L5.90447 26.6412C5.7888 27.5496 5.73096 28.4739 5.73096 29.3891C5.73096 41.1586 15.3037 50.7336 27.0698 50.7336L27.5393 50.7313V48.2625L27.528 47.8043Z" fill="#CE1A1A"/>
</g>
<defs>
<clipPath id="clip0_39230_24766">
<rect width="55.6142" height="55.6142" fill="white" transform="translate(0.908203 0.446777)"/>
</clipPath>
</defs>
</svg>
